# xmcd CD database file
# Copyright (C) 1995 Ti Kan
#
# Track frame offsets:
#	150
#	15312
#	33487
#	48885
#	64762
#	94250
#	106100
#	128197
#	172522
#	194812
#	217250
#	231942
#
# Disc length: 3358 seconds
#
# Revision: 1
# Processed by: cddbd v1.4b41PL1 Copyright (c) Steve Scherf et al.
# Submitted via: NotifyCDPlayer(CDDB) 1.05
#
DISCID=9f0d1c0c
DTITLE=B.B. King - 36 All-Time Greatest Hits (Volume 3) 
DYEAR=1900
DGENRE=
TTITLE0=Better Not Look Down
TTITLE1=Baby Get Lost
TTITLE2=Baby I'm Yours
TTITLE3=Blind Love
TTITLE4=Crying Won't Help You Now
TTITLE5=Having My Say
TTITLE6=You're Losin' Me
TTITLE7=You're Mean
TTITLE8=Confessin' The Blues
TTITLE9=Midnight Believer
TTITLE10=Key To My Kingdom
TTITLE11=I Got Them Blues
EXTD=
EXTT0=
EXTT1=
EXTT2=
EXTT3=
EXTT4=
EXTT5=
EXTT6=
EXTT7=
EXTT8=
EXTT9=
EXTT10=
EXTT11=
PLAYORDER=
